<svg width="99" height="80" viewBox="0 0 99 80" fill="none" xmlns="http://www.w3.org/2000/svg">
<path d="M96 80.0002L98.5629 74.8267L92.801 75.194L96 80.0002ZM1.00829 2.00017C1.48706 1.99224 1.9738 1.98823 2.46814 1.98828L2.46825 0.988282C1.96844 0.988227 1.47614 0.992281 0.991714 1.00031L1.00829 2.00017ZM5.43362 2.03566C6.39897 2.06592 7.38779 2.11096 8.3978 2.17165L8.45779 1.17345C7.43835 1.11219 6.43997 1.06671 5.46494 1.03616L5.43362 2.03566ZM11.3589 2.39011C12.3289 2.47475 13.315 2.57349 14.3156 2.68701L14.4283 1.69338C13.4192 1.57889 12.4244 1.47929 11.4458 1.3939L11.3589 2.39011ZM17.2664 3.0597C18.2332 3.19418 19.2113 3.34235 20.199 3.50477L20.3613 2.51802C19.3653 2.35425 18.3791 2.20485 17.4042 2.06923L17.2664 3.0597ZM23.116 4.02131C24.0782 4.20391 25.0479 4.40006 26.0239 4.61028L26.2345 3.6327C25.2504 3.42074 24.2726 3.22295 23.3024 3.03884L23.116 4.02131ZM28.9203 5.27178C29.8767 5.50277 30.8378 5.74742 31.8023 6.00617L32.0614 5.04032C31.0887 4.77937 30.1195 4.53265 29.155 4.29973L28.9203 5.27178ZM34.6531 6.80992C35.5956 7.08867 36.5401 7.38116 37.4856 7.68778L37.7941 6.73655C36.8402 6.4272 35.8874 6.13216 34.9367 5.85098L34.6531 6.80992ZM40.2976 8.64109C41.2268 8.97005 42.1559 9.31303 43.0839 9.67041L43.4433 8.73723C42.5067 8.3765 41.569 8.03037 40.6313 7.69842L40.2976 8.64109ZM45.8327 10.7734C46.7417 11.1531 47.6485 11.5471 48.5523 11.9558L48.9643 11.0446C48.0516 10.6319 47.1359 10.234 46.2182 9.85069L45.8327 10.7734ZM51.238 13.2186C52.1232 13.6512 53.0044 14.0984 53.8807 14.5606L54.3473 13.6761C53.4617 13.209 52.5713 12.7572 51.6771 12.3202L51.238 13.2186ZM56.4789 15.9841C57.3359 16.4716 58.187 16.9742 59.0315 17.4921L59.5543 16.6396C58.7003 16.1159 57.8397 15.6078 56.9734 15.1149L56.4789 15.9841ZM61.5322 19.0844C62.3534 19.6273 63.1671 20.1855 63.9726 20.7594L64.5529 19.945C63.7378 19.3642 62.9144 18.7994 62.0836 18.2502L61.5322 19.0844ZM66.3536 22.5214C67.1353 23.1221 67.9079 23.7385 68.6706 24.3711L69.309 23.6014C68.5366 22.9608 67.7543 22.3366 66.963 21.7285L66.3536 22.5214ZM70.9104 26.3016C71.6431 26.958 72.3653 27.6303 73.0761 28.319L73.7719 27.6007C73.0516 26.9029 72.3199 26.2217 71.5777 25.5568L70.9104 26.3016ZM75.1639 30.4237C75.8407 31.1341 76.5058 31.8605 77.1584 32.6034L77.9097 31.9435C77.2481 31.1903 76.5739 30.4539 75.8878 29.7339L75.1639 30.4237ZM79.0644 34.8654C79.6829 35.6309 80.2884 36.4127 80.8801 37.2111L81.6835 36.6157C81.0834 35.806 80.4694 35.0132 79.8423 34.237L79.0644 34.8654ZM82.5871 39.6177C83.1375 40.429 83.674 41.2564 84.1961 42.1002L85.0465 41.5741C84.517 40.7183 83.9728 39.8792 83.4147 39.0563L82.5871 39.6177ZM85.7033 44.6547C86.1815 45.5055 86.6454 46.3719 87.0944 47.2543L87.9856 46.8009C87.5304 45.9061 87.06 45.0275 86.5751 44.1647L85.7033 44.6547ZM88.3836 49.9235C88.7908 50.8126 89.1832 51.7171 89.5602 52.6371L90.4855 52.2579C90.1034 51.3254 89.7056 50.4085 89.2928 49.5071L88.3836 49.9235ZM90.6257 55.3921C90.9621 56.3157 91.2835 57.2542 91.5892 58.2079L92.5415 57.9026C92.2318 56.9366 91.9062 55.9857 91.5653 55.0499L90.6257 55.3921ZM92.4344 61.0257C92.6988 61.9713 92.9483 62.931 93.1825 63.9052L94.1548 63.6715C93.9178 62.6855 93.6652 61.7138 93.3974 60.7564L92.4344 61.0257ZM93.8204 66.7837C94.0155 67.7432 94.196 68.7162 94.3615 69.7026L95.3477 69.5372C95.1803 68.5395 94.9977 67.5553 94.8004 66.5845L93.8204 66.7837ZM94.8025 72.6277C94.9324 73.5965 95.0483 74.5778 95.1496 75.5718L96.1444 75.4704C96.042 74.466 95.925 73.4742 95.7937 72.4948L94.8025 72.6277Z" fill="#6369FF"/>
</svg>
