<svg width="31" height="30" viewBox="0 0 31 30" fill="none" xmlns="http://www.w3.org/2000/svg">
<path fill-rule="evenodd" clip-rule="evenodd" d="M17.0477 22.7344H14.0306C13.7717 22.7344 13.5619 22.5245 13.5619 22.2656V15.4741H12.5957C12.3368 15.4741 12.127 15.2643 12.127 15.0054V12.4406C12.127 12.1818 12.3368 11.9719 12.5957 11.9719H13.5619V10.7804C13.5619 10.2881 13.6506 9.3416 14.2451 8.53377C14.6709 7.95527 15.5074 7.26562 17.0749 7.26562L19.3118 7.27471C19.57 7.27576 19.7787 7.48529 19.7787 7.74346V10.2337C19.7787 10.4926 19.5688 10.7024 19.31 10.7024H17.688C17.5843 10.7024 17.5164 10.7185 17.5164 10.9331V11.9719H19.3481C19.4808 11.9719 19.6072 12.0281 19.6961 12.1267C19.785 12.2252 19.828 12.3568 19.8144 12.4887L19.5501 15.0535C19.5255 15.2925 19.3241 15.4742 19.0838 15.4742H17.5164V22.2656C17.5164 22.5245 17.3065 22.7344 17.0477 22.7344ZM13.0644 12.9094V14.5367H14.0305C14.2894 14.5367 14.4992 14.7466 14.4992 15.0055V21.7969H16.5788V15.0055C16.5788 14.7466 16.7887 14.5368 17.0475 14.5368H18.6608L18.8285 12.9095H17.0475C16.7887 12.9095 16.5788 12.6996 16.5788 12.4407V10.9331C16.5788 10.1262 17.1358 9.765 17.6878 9.765H18.8411V8.21033L17.0729 8.20319C16.131 8.20319 15.4329 8.50137 15.0001 9.08948C14.5481 9.70377 14.4993 10.4767 14.4993 10.7805V12.4407C14.4993 12.6996 14.2894 12.9094 14.0305 12.9094H13.0644Z" fill="#6369FF"/>
<path fill-rule="evenodd" clip-rule="evenodd" d="M15.9707 0C19.9774 0 23.7443 1.56035 26.5775 4.39359C29.4105 7.22672 30.9707 10.9935 30.9707 15C30.9707 19.0072 29.4105 22.7742 26.5774 25.6071C23.7445 28.4399 19.9776 30 15.9707 30C11.9641 30 8.19736 28.4399 5.3643 25.6071C2.53105 22.7741 0.970703 19.0071 0.970703 15C0.970703 10.9936 2.53105 7.22684 5.3643 4.39359C8.19754 1.56035 11.9643 0 15.9707 0ZM15.9707 29.0625C19.7272 29.0625 23.2587 27.5999 25.9145 24.9442C28.5705 22.2883 30.0332 18.7567 30.0332 15C30.0332 11.2439 28.5705 7.71258 25.9145 5.05646C23.2585 2.40029 19.727 0.9375 15.9707 0.9375C12.2147 0.9375 8.6834 2.40029 6.02717 5.05652C3.371 7.7127 1.9082 11.244 1.9082 15C1.9082 18.7566 3.371 22.2882 6.02717 24.9442C8.68316 27.5999 12.2145 29.0625 15.9707 29.0625Z" fill="#6369FF"/>
<path d="M26.1681 6.73647C26.005 6.53537 25.7098 6.50461 25.5087 6.66779C25.3077 6.83092 25.2769 7.12611 25.4401 7.32709C27.1928 9.48744 28.1581 12.2124 28.1581 15C28.1581 18.2559 26.8904 21.3166 24.5886 23.6183C22.2868 25.9199 19.2262 27.1875 15.9706 27.1875C12.967 27.1875 10.0816 26.0855 7.84578 24.0846C7.65289 23.912 7.35652 23.9284 7.1839 24.1213C7.01128 24.3142 7.02769 24.6105 7.22058 24.7832C9.62855 26.9382 12.736 28.125 15.9706 28.125C19.4766 28.125 22.7727 26.7599 25.2515 24.2812C27.7304 21.8024 29.0956 18.5063 29.0956 15C29.0956 11.998 28.0559 9.06334 26.1681 6.73647Z" fill="#6369FF"/>
<path d="M3.7832 15C3.7832 8.27982 9.25053 2.8125 15.9707 2.8125C18.9742 2.8125 21.8596 3.91453 24.0954 5.91557C24.2884 6.0883 24.5847 6.07178 24.7573 5.87895C24.93 5.68605 24.9136 5.38969 24.7207 5.21707C22.3127 3.06188 19.2053 1.875 15.9707 1.875C12.4651 1.875 9.1692 3.24029 6.6901 5.71939C4.211 8.19844 2.8457 11.4944 2.8457 15C2.8457 18.0023 3.88539 20.9372 5.77322 23.2639C5.86586 23.3781 6.00109 23.4374 6.1375 23.4374C6.24127 23.4374 6.34568 23.4031 6.43258 23.3326C6.63361 23.1695 6.66438 22.8743 6.50125 22.6733C4.74848 20.513 3.7832 17.7879 3.7832 15Z" fill="#6369FF"/>
</svg>
