<svg width="34" height="34" viewBox="0 0 34 34" fill="none" xmlns="http://www.w3.org/2000/svg">
<path d="M26.5635 4.04686L26.5634 4.04685C26.2298 3.80021 25.7595 3.87071 25.5128 4.20421C25.266 4.53779 25.3367 5.00816 25.6701 5.25488L25.6702 5.2549C27.4689 6.5851 28.9603 8.33651 29.9829 10.3195C31.0544 12.3974 31.5976 14.6447 31.5976 17.0001C31.5976 25.0491 25.049 31.5977 17 31.5977C8.95098 31.5977 2.40239 25.0491 2.40239 17C2.40239 8.95088 8.95098 2.40239 17 2.40239C17.4148 2.40239 17.7512 2.06599 17.7512 1.6512C17.7512 1.2364 17.4148 0.9 17 0.9C8.12236 0.9 0.9 8.12236 0.9 17C0.9 25.8776 8.12236 33.1 17 33.1C25.8776 33.1 33.1 25.8776 33.1 17C33.1 14.4397 32.484 11.8917 31.3182 9.63093C30.1906 7.44411 28.5465 5.51333 26.5635 4.04686Z" fill="#6369FF" stroke="#6369FF" stroke-width="0.2"/>
<path d="M13.9786 24.4277V11.4583L23.33 17.0253L16.3759 21.5056L16.3759 21.5057C16.0272 21.7304 15.9265 22.1952 16.1513 22.5439L16.1513 22.544C16.3761 22.8927 16.8409 22.9934 17.1897 22.7685L25.163 17.6314C25.3816 17.4905 25.5118 17.2466 25.5072 16.9866C25.5026 16.7266 25.3639 16.4874 25.1404 16.3544L25.1404 16.3543L13.6116 9.49128L13.6115 9.49124C13.3793 9.3532 13.0911 9.35015 12.8561 9.48377C12.6213 9.61734 12.4762 9.86671 12.4762 10.1368V24.4277C12.4762 24.8426 12.8126 25.1789 13.2274 25.1789C13.6422 25.1789 13.9786 24.8426 13.9786 24.4277Z" fill="#6369FF" stroke="#6369FF" stroke-width="0.2"/>
</svg>
