<svg width="30" height="30" viewBox="0 0 30 30" fill="none" xmlns="http://www.w3.org/2000/svg">
<path fill-rule="evenodd" clip-rule="evenodd" d="M14.9854 0C18.9881 0 22.7516 1.5589 25.5817 4.38937C28.412 7.21961 29.9709 10.9828 29.9709 14.9854C29.9709 18.9887 28.412 22.7518 25.5817 25.582C22.7516 28.4123 18.9884 29.9709 14.9854 29.9709C10.9828 29.9709 7.21961 28.4123 4.38937 25.582C1.5589 22.7518 0 18.9887 0 14.9854C0 10.9828 1.5589 7.2199 4.38937 4.38937C7.2199 1.5589 10.9828 0 14.9854 0ZM14.9854 29.0342C18.7383 29.0342 22.2662 27.5731 24.9195 24.9197C27.5728 22.2665 29.0342 18.7386 29.0342 14.9854C29.0342 11.2329 27.5728 7.70494 24.9195 5.05162C22.2659 2.39801 18.738 0.936646 14.9854 0.936646C11.2332 0.936646 7.70523 2.39801 5.05162 5.05162C2.39801 7.70523 0.936646 11.2332 0.936646 14.9854C0.936646 18.7383 2.39801 22.2665 5.05162 24.9197C7.70494 27.5731 11.2329 29.0342 14.9854 29.0342Z" fill="#6369FF"/>
<path d="M25.173 6.73006C25.0101 6.52906 24.7151 6.49825 24.5141 6.66143C24.3132 6.82438 24.2826 7.11933 24.4456 7.31996C26.1965 9.47821 27.1609 12.2004 27.1609 14.9855C27.1609 18.2381 25.8944 21.2959 23.595 23.5953C21.2955 25.8948 18.2378 27.1609 14.9854 27.1609C11.9848 27.1609 9.10203 26.0602 6.86857 24.0612C6.67562 23.8886 6.37979 23.9051 6.20718 24.0978C6.03486 24.2905 6.05111 24.5866 6.24377 24.7589C8.64955 26.912 11.7539 28.0976 14.9854 28.0976C18.4879 28.0976 21.7808 26.7339 24.2572 24.2576C26.7335 21.7812 28.0975 18.4882 28.0975 14.9855C28.0975 11.9863 27.0589 9.05462 25.173 6.73006Z" fill="#6369FF"/>
<path d="M2.80983 14.9854C2.80983 8.27171 8.27195 2.80958 14.9857 2.80958C17.9862 2.80958 20.8687 3.91058 23.1024 5.90968C23.2951 6.08229 23.5912 6.06568 23.7636 5.8731C23.9362 5.68044 23.9196 5.38432 23.727 5.21193C21.3215 3.05888 18.2169 1.87329 14.9857 1.87329C11.4835 1.87329 8.1908 3.23719 5.71412 5.71388C3.23744 8.19049 1.87354 11.4832 1.87354 14.9854C1.87354 17.9848 2.91219 20.9168 4.79802 23.2411C4.89066 23.3554 5.02558 23.4146 5.1619 23.4146C5.26566 23.4146 5.37 23.3803 5.45685 23.3097C5.65749 23.1468 5.68836 22.8519 5.52549 22.6511C3.77422 20.4929 2.80983 17.7704 2.80983 14.9854Z" fill="#6369FF"/>
<path fill-rule="evenodd" clip-rule="evenodd" d="M11.0789 7.47253H18.9213C20.9098 7.47253 22.5275 9.09034 22.5275 11.0788V18.9212C22.5275 20.9098 20.9098 22.5275 18.9213 22.5275H11.0789C9.09039 22.5275 7.47266 20.9098 7.47266 18.9212V11.0788C7.47266 9.09034 9.09039 7.47253 11.0789 7.47253ZM18.9213 21.5779C20.3862 21.5779 21.578 20.386 21.578 18.9211V11.0788C21.578 9.61409 20.3862 8.42236 18.9213 8.42236H11.0789C9.61413 8.42236 8.42239 9.61402 8.42239 11.0788V18.9211C8.42239 20.386 9.61405 21.5779 11.0789 21.5779H18.9213Z" fill="#6369FF"/>
<path d="M19.2077 10.224C18.8889 10.224 18.6294 10.4834 18.6294 10.8021C18.6294 11.1209 18.8889 11.3802 19.2077 11.3802C19.5265 11.3802 19.7858 11.1209 19.7858 10.8021C19.7858 10.4834 19.5265 10.224 19.2077 10.224Z" fill="#6369FF"/>
<path fill-rule="evenodd" clip-rule="evenodd" d="M11.3101 14.9998C11.3101 12.9652 12.9653 11.3099 14.9999 11.3099C17.0346 11.3099 18.6901 12.9652 18.6901 14.9998C18.6901 17.0345 17.0346 18.6899 14.9999 18.6899C12.9653 18.6899 11.3101 17.0345 11.3101 14.9998ZM12.2595 14.9998C12.2595 16.511 13.4888 17.7405 14.9999 17.7405C16.5109 17.7405 17.7402 16.511 17.7401 14.9998C17.7401 13.4889 16.5109 12.2598 14.9999 12.2598C13.4888 12.2598 12.2595 13.4889 12.2595 14.9998Z" fill="#6369FF"/>
</svg>
