<svg width="30" height="30" viewBox="0 0 30 30" fill="none" xmlns="http://www.w3.org/2000/svg">
<path fill-rule="evenodd" clip-rule="evenodd" d="M15 0C19.0067 0 22.7736 1.56035 25.6068 4.39359C28.4398 7.22672 30 10.9935 30 15C30 19.0072 28.4398 22.7742 25.6067 25.6071C22.7738 28.4399 19.0069 30 15 30C10.9934 30 7.22666 28.4399 4.39359 25.6071C1.56035 22.7741 0 19.0071 0 15C0 10.9936 1.56035 7.22684 4.39359 4.39359C7.22684 1.56035 10.9936 0 15 0ZM15 29.0625C18.7565 29.0625 22.2879 27.5999 24.9438 24.9442C27.5998 22.2883 29.0625 18.7567 29.0625 15C29.0625 11.2439 27.5998 7.71258 24.9438 5.05646C22.2878 2.40029 18.7563 0.9375 15 0.9375C11.244 0.9375 7.7127 2.40029 5.05646 5.05646C2.40029 7.7127 0.9375 11.244 0.9375 15C0.9375 18.7566 2.40029 22.2882 5.05646 24.9442C7.71246 27.5999 11.2438 29.0625 15 29.0625Z" fill="#6369FF"/>
<path d="M25.1974 6.73644C25.0343 6.53535 24.7391 6.50464 24.538 6.66777C24.337 6.83089 24.3062 7.12609 24.4694 7.32707C26.2221 9.48742 27.1874 12.2124 27.1874 15C27.1874 18.2559 25.9197 21.3166 23.6179 23.6182C21.3161 25.9199 18.2555 27.1875 14.9999 27.1875C11.9963 27.1875 9.11089 26.0855 6.87507 24.0846C6.68218 23.912 6.38581 23.9284 6.2132 24.1213C6.04058 24.3142 6.05699 24.6105 6.24988 24.7831C8.65785 26.9382 11.7653 28.125 14.9999 28.125C18.5059 28.125 21.8019 26.7599 24.2808 24.2812C26.7597 21.8024 28.1249 18.5062 28.1249 15C28.1249 11.998 27.0852 9.06332 25.1974 6.73644Z" fill="#6369FF"/>
<path d="M2.8125 15C2.8125 8.27982 8.27982 2.8125 15 2.8125C18.0035 2.8125 20.8889 3.91453 23.1247 5.91557C23.3177 6.0883 23.614 6.07178 23.7866 5.87895C23.9593 5.68605 23.9429 5.38969 23.75 5.21707C21.342 3.06188 18.2346 1.875 15 1.875C11.4944 1.875 8.19844 3.24029 5.71939 5.71939C3.24029 8.1985 1.875 11.4944 1.875 15C1.875 18.0023 2.91469 20.9372 4.80252 23.2639C4.89516 23.3781 5.03039 23.4374 5.1668 23.4374C5.27057 23.4374 5.37498 23.4031 5.46187 23.3326C5.66291 23.1695 5.69367 22.8743 5.53055 22.6733C3.77777 20.513 2.8125 17.7879 2.8125 15Z" fill="#6369FF"/>
<path fill-rule="evenodd" clip-rule="evenodd" d="M21.9882 21.8579H19.0833C18.8244 21.8579 18.6146 21.648 18.6146 21.3891V16.7142C18.6146 15.2064 17.8858 15.2064 17.6114 15.2064C16.9388 15.2064 16.649 15.745 16.5556 15.9766C16.5142 16.0772 16.4939 16.2553 16.4939 16.5094V21.3892C16.4939 21.648 16.284 21.8579 16.0251 21.8579H13.1211C12.9964 21.8579 12.8768 21.8082 12.7889 21.7199C12.7009 21.6315 12.6518 21.5117 12.6524 21.387L12.6524 21.3778C12.6538 21.0663 12.6886 13.4586 12.6528 12.6731C12.647 12.5452 12.6938 12.4205 12.7822 12.3279C12.8707 12.2354 12.9931 12.183 13.1211 12.183H16.0252C16.2841 12.183 16.4939 12.3929 16.4939 12.6517V12.6598C16.9877 12.2743 17.6706 11.978 18.643 11.978C19.7611 11.978 20.7064 12.3619 21.3766 13.0882C22.0935 13.8651 22.457 14.9723 22.457 16.3789V21.3892C22.457 21.648 22.2471 21.8579 21.9882 21.8579ZM15.6875 15.6227C16.0288 14.7762 16.7485 14.2689 17.6114 14.2689C18.2691 14.2689 18.7939 14.5291 19.1293 15.0216C19.4098 15.4336 19.5521 16.0031 19.5521 16.7142V20.9203H21.5195V16.3788C21.5195 14.1778 20.471 12.9155 18.6429 12.9155C17.3845 12.9155 16.8123 13.5365 16.4185 14.1439C16.3055 14.3181 16.0913 14.3974 15.8922 14.3385C15.693 14.2796 15.5564 14.0967 15.5564 13.889V13.1204H13.5992C13.6165 14.7411 13.5985 19.4054 13.592 20.9204H15.5564V16.5093C15.5564 16.1161 15.5968 15.8427 15.6875 15.6227Z" fill="#6369FF"/>
<path fill-rule="evenodd" clip-rule="evenodd" d="M10.0797 7.96875C11.288 7.96875 12.1487 8.77846 12.1727 9.93779L12.1728 9.94752C12.1728 11.0941 11.2846 11.9263 10.061 11.9263H10.0415C8.84045 11.9263 7.96875 11.0941 7.96875 9.94752C7.96875 8.80096 8.8565 7.96875 10.0797 7.96875ZM10.0415 10.9888H10.061C10.7616 10.9888 11.2328 10.5725 11.2352 9.95232C11.2196 9.30691 10.7773 8.90625 10.0796 8.90625C9.37781 8.90625 8.90625 9.32473 8.90625 9.94752C8.90625 10.5703 9.36246 10.9888 10.0415 10.9888Z" fill="#6369FF"/>
<path fill-rule="evenodd" clip-rule="evenodd" d="M8.13965 12.6516C8.13965 12.3927 8.34953 12.1829 8.6084 12.1829H11.5141C11.773 12.1829 11.9829 12.3927 11.9829 12.6516V21.3891C11.9829 21.6479 11.773 21.8578 11.5141 21.8578H8.6084C8.34953 21.8578 8.13965 21.6479 8.13965 21.3891V12.6516ZM9.07721 20.9204H11.0454V13.1204H9.07721V20.9204Z" fill="#6369FF"/>
</svg>
