<svg width="31" height="30" viewBox="0 0 31 30" fill="none" xmlns="http://www.w3.org/2000/svg">
<path fill-rule="evenodd" clip-rule="evenodd" d="M15.9707 0C19.9774 0 23.7443 1.56035 26.5775 4.39359C29.4105 7.22672 30.9707 10.9935 30.9707 15C30.9707 19.0072 29.4105 22.7742 26.5774 25.6071C23.7445 28.4399 19.9776 30 15.9707 30C11.9641 30 8.19736 28.4399 5.3643 25.6071C2.53105 22.7741 0.970703 19.0071 0.970703 15C0.970703 10.9936 2.53105 7.22684 5.3643 4.39359C8.19754 1.56035 11.9643 0 15.9707 0ZM15.9707 29.0625C19.7272 29.0625 23.2587 27.5999 25.9145 24.9442C28.5705 22.2883 30.0332 18.7567 30.0332 15C30.0332 11.2439 28.5705 7.71258 25.9145 5.05646C23.2585 2.40029 19.727 0.9375 15.9707 0.9375C12.2147 0.9375 8.6834 2.40029 6.02717 5.05646C3.371 7.7127 1.9082 11.244 1.9082 15C1.9082 18.7566 3.371 22.2882 6.02717 24.9442C8.68316 27.5999 12.2145 29.0625 15.9707 29.0625Z" fill="#6369FF"/>
<path d="M26.1681 6.73644C26.005 6.53535 25.7098 6.50464 25.5087 6.66777C25.3077 6.83089 25.2769 7.12609 25.4401 7.32707C27.1928 9.48742 28.1581 12.2124 28.1581 15C28.1581 18.2559 26.8904 21.3166 24.5886 23.6182C22.2868 25.9199 19.2262 27.1875 15.9706 27.1875C12.967 27.1875 10.0816 26.0855 7.84578 24.0846C7.65289 23.912 7.35652 23.9284 7.1839 24.1213C7.01128 24.3142 7.02769 24.6105 7.22058 24.7831C9.62855 26.9382 12.736 28.125 15.9706 28.125C19.4766 28.125 22.7727 26.7599 25.2515 24.2812C27.7304 21.8024 29.0956 18.5062 29.0956 15C29.0956 11.998 28.0559 9.06332 26.1681 6.73644Z" fill="#6369FF"/>
<path d="M3.7832 15C3.7832 8.27982 9.25053 2.8125 15.9707 2.8125C18.9742 2.8125 21.8596 3.91453 24.0954 5.91557C24.2884 6.0883 24.5847 6.07178 24.7573 5.87895C24.93 5.68605 24.9136 5.38969 24.7207 5.21707C22.3127 3.06188 19.2053 1.875 15.9707 1.875C12.4651 1.875 9.16914 3.24029 6.6901 5.71939C4.211 8.1985 2.8457 11.4944 2.8457 15C2.8457 18.0023 3.88539 20.9372 5.77322 23.2639C5.86586 23.3781 6.00109 23.4374 6.1375 23.4374C6.24127 23.4374 6.34568 23.4031 6.43258 23.3326C6.63361 23.1695 6.66438 22.8743 6.50125 22.6733C4.74848 20.513 3.7832 17.7879 3.7832 15Z" fill="#6369FF"/>
<path fill-rule="evenodd" clip-rule="evenodd" d="M24.2982 10.8501C24.4324 11.0096 24.4451 11.2386 24.3294 11.412C23.944 11.9897 23.4734 12.497 22.9284 12.9231C22.9292 12.9742 22.9297 13.0264 22.9297 13.0799C22.9297 15.2516 22.0906 17.4489 20.6276 19.1086C19.4524 20.4419 17.3447 22.0313 13.9783 22.0313C12.265 22.0313 10.5971 21.5425 9.15515 20.6175C8.97151 20.4997 8.89341 20.2708 8.96683 20.0653C9.04019 19.8598 9.24573 19.7321 9.46241 19.7574C9.67728 19.7824 9.89829 19.7951 10.1193 19.7951C10.9959 19.7951 11.8369 19.5961 12.5987 19.2131C11.6604 18.8392 10.9114 18.0627 10.591 17.0618C10.5408 16.9048 10.5767 16.733 10.6857 16.6092C10.7 16.593 10.7153 16.5779 10.7314 16.564C9.98677 15.924 9.52341 14.9764 9.52341 13.9437V13.9065C9.52341 13.7403 9.61124 13.5867 9.75438 13.5025C9.81843 13.4647 9.88933 13.4434 9.9611 13.4387C9.69356 12.9426 9.5479 12.3807 9.5479 11.7976C9.5479 11.1872 9.70938 10.5875 10.0149 10.0631C10.0923 9.93022 10.23 9.8438 10.3833 9.83179C10.5368 9.81972 10.6861 9.88376 10.7833 10.003C12.0947 11.6126 13.98 12.6476 16.0226 12.8966C16.0201 12.8426 16.0189 12.7883 16.0189 12.7339C16.0189 10.8324 17.5667 9.2854 19.4693 9.2854C20.3273 9.2854 21.1596 9.60937 21.7923 10.1823C22.3207 10.0543 22.8267 9.84796 23.2997 9.56718C23.4671 9.46786 23.6786 9.48228 23.8309 9.60362C23.9833 9.72491 24.0448 9.92776 23.9853 10.1133C23.9154 10.3317 23.8243 10.5411 23.7141 10.7388L23.7499 10.7231C23.9406 10.6389 24.164 10.6906 24.2982 10.8501ZM21.9836 12.718C21.9758 12.5594 22.0488 12.4076 22.1776 12.3147C22.2921 12.2321 22.4032 12.1455 22.5106 12.0549C22.4347 12.0667 22.3586 12.077 22.2823 12.0859C22.0626 12.1118 21.8551 11.9807 21.7839 11.7715C21.7126 11.5623 21.7972 11.3318 21.9868 11.2182C22.0831 11.1606 22.175 11.0969 22.2619 11.0278C22.0886 11.0773 21.913 11.1194 21.7354 11.1541C21.5776 11.185 21.4147 11.1326 21.3043 11.0154C20.8299 10.5118 20.1611 10.2228 19.4695 10.2228C18.0839 10.2228 16.9566 11.3493 16.9566 12.7339C16.9566 12.9294 16.9784 13.1221 17.0215 13.3066C17.055 13.4499 17.0191 13.6007 16.9249 13.7136C16.8305 13.8265 16.6897 13.8887 16.5417 13.8814C14.2749 13.7684 12.1362 12.7896 10.5655 11.1676C10.5127 11.3722 10.4856 11.5839 10.4856 11.7975C10.4856 12.6407 10.9033 13.4228 11.603 13.8898C11.7772 14.006 11.8532 14.2237 11.7891 14.4231C11.725 14.6224 11.5368 14.7553 11.3272 14.7482C11.0675 14.7395 10.8092 14.7012 10.5585 14.6349C10.8127 15.518 11.5416 16.219 12.4754 16.4076C12.6885 16.4507 12.8441 16.6347 12.8511 16.852C12.8581 17.0693 12.7147 17.263 12.5048 17.3197C12.276 17.3815 12.0422 17.4197 11.8069 17.434C12.2579 18.0885 13.0048 18.5045 13.83 18.52C14.0283 18.5238 14.2027 18.6518 14.2657 18.8398C14.3287 19.0278 14.2665 19.2351 14.1106 19.3575C13.2749 20.0131 12.3151 20.4435 11.2891 20.6287C12.1473 20.9353 13.0555 21.0938 13.9783 21.0938C16.9949 21.0938 18.8768 19.6771 19.9243 18.4887C21.2384 16.9979 21.9921 15.0265 21.9921 13.0799C21.9921 12.9518 21.9893 12.8334 21.9836 12.718Z" fill="#6369FF"/>
</svg>
