<svg width="125" height="50" viewBox="0 0 125 50" fill="none" xmlns="http://www.w3.org/2000/svg">
<path fill-rule="evenodd" clip-rule="evenodd" d="M37.1603 0.574062C37.9053 -0.182867 39.1229 -0.192504 39.8798 0.552536L46.4445 7.01407C48.5047 9.04196 48.5047 12.3427 46.4445 14.3705C44.4012 16.3817 41.1007 16.3817 39.0574 14.3705L30.1483 5.60131C29.6019 5.06353 28.7036 5.06352 28.1573 5.6013C27.6279 6.12239 27.6279 6.95452 28.1573 7.47561L46.4445 25.4756C48.5047 27.5035 48.5047 30.8042 46.4445 32.8321C44.4012 34.8433 41.1007 34.8433 39.0574 32.8321L11.3921 5.60131C10.8458 5.06353 9.9475 5.06353 9.40115 5.6013C8.87174 6.12239 8.87173 6.95452 9.40114 7.47561L42.2243 39.7833C44.2846 41.8112 44.2846 45.1119 42.2243 47.1398C40.1811 49.151 36.8806 49.151 34.8373 47.1398L6.23421 18.9859C5.68785 18.4482 4.78956 18.4482 4.24321 18.9859C3.7138 19.507 3.7138 20.3391 4.24321 20.8602L23.4682 39.7833C25.5285 41.8112 25.5285 45.1119 23.4682 47.1398C21.4249 49.151 18.1245 49.151 16.0812 47.1398L6.23421 37.4475C5.68785 36.9097 4.78956 36.9097 4.24321 37.4475C3.7138 37.9686 3.7138 38.8007 4.24321 39.3218L11.7457 46.7064C12.5026 47.4514 12.5122 48.669 11.7672 49.4259C11.0221 50.1829 9.80455 50.1925 9.04762 49.4475L1.54518 42.0629C-0.51506 40.035 -0.51506 36.7343 1.54518 34.7064C3.58847 32.6952 6.88895 32.6952 8.93224 34.7064L18.7792 44.3987C19.3256 44.9365 20.2238 44.9365 20.7702 44.3987C21.2996 43.8776 21.2996 43.0455 20.7702 42.5244L1.54518 23.6013C-0.51506 21.5734 -0.51506 18.2727 1.54518 16.2448C3.58847 14.2336 6.88895 14.2336 8.93224 16.2448L37.5353 44.3987C38.0817 44.9365 38.98 44.9365 39.5263 44.3987C40.0557 43.8776 40.0557 43.0455 39.5263 42.5244L6.70311 10.2167C4.64287 8.18881 4.64287 4.88811 6.70311 2.86023C8.74641 0.848992 12.0469 0.849016 14.0902 2.86023L41.7554 30.091C42.3018 30.6288 43.2001 30.6288 43.7464 30.091C44.2758 29.5699 44.2758 28.7378 43.7464 28.2167L25.4592 10.2167C23.399 8.18881 23.399 4.88811 25.4592 2.86023C27.5025 0.848994 30.803 0.849004 32.8463 2.86024L41.7554 11.6295C42.3018 12.1672 43.2001 12.1672 43.7464 11.6295C44.2758 11.1084 44.2758 10.2762 43.7464 9.75516L37.1818 3.29362C36.4249 2.54858 36.4152 1.33099 37.1603 0.574062Z" fill="#6369FF"/>
<path fill-rule="evenodd" clip-rule="evenodd" d="M85.4322 26.9397L84.3091 23.3903H79.1326L78.0095 26.9397H74.8444L79.9596 12.3059H83.5841L88.7096 26.9397H85.4322ZM64.2514 26.9399V21.5854H66.7222L69.4687 26.9399H72.9605L69.8567 21.129C71.5515 20.4698 72.5317 18.8472 72.5317 16.9711C72.5317 14.0809 70.5918 12.3062 67.2021 12.3062H61.168V26.9399H64.2514ZM64.2518 19.3664V14.7015H66.8758C68.4073 14.7015 69.367 15.6142 69.367 17.034C69.367 18.4842 68.4583 19.3664 66.9064 19.3664H64.2518ZM79.7963 21.1L81.6851 15.1065H81.7566L83.6454 21.1H79.7963ZM91.4401 12.3059H97.4334C100.456 12.3059 102.538 14.3037 102.538 17.3157C102.538 20.3175 100.384 22.3254 97.2803 22.3254H94.5236V26.9397H91.4401V12.3059ZM94.5238 19.9343V14.7319H96.6169C98.3832 14.7319 99.4042 15.6649 99.4042 17.328C99.4042 19.0013 98.373 19.9343 96.6067 19.9343H94.5238ZM108.67 26.9397H105.586V12.3059H108.67V26.9397ZM117.975 12.3059H112.35V26.9397H117.975C122.396 26.9397 125 24.2117 125 19.567C125 14.9223 122.396 12.3059 117.975 12.3059ZM115.433 14.8329V24.4062H117.608C120.365 24.4062 121.855 22.7431 121.855 19.579C121.855 16.5164 120.324 14.8329 117.608 14.8329H115.433ZM103.319 37.4402C101.4 37.4402 100.185 36.0563 100.185 33.8677C100.185 31.6983 101.414 30.3 103.319 30.3C104.833 30.3 105.985 31.2147 106.207 32.5939H105.329C105.108 31.6888 104.312 31.0949 103.319 31.0949C101.959 31.0949 101.077 32.1868 101.077 33.8677C101.077 35.563 101.95 36.6453 103.324 36.6453C104.346 36.6453 105.079 36.1568 105.329 35.314H106.207C105.889 36.6788 104.857 37.4402 103.319 37.4402ZM61.1986 37.325H63.8263C65.3064 37.325 66.1839 36.6018 66.1839 35.3855C66.1839 34.466 65.5764 33.8051 64.6314 33.6854V33.6471C65.3016 33.5274 65.832 32.8569 65.832 32.1386C65.832 31.1042 65.0268 30.4146 63.8359 30.4146H61.1986V37.325ZM62.0669 33.3947V31.1774H63.6387C64.4824 31.1774 64.9549 31.5557 64.9549 32.2405C64.9549 32.9876 64.3956 33.3947 63.3687 33.3947H62.0669ZM62.0669 36.5655H63.6965C64.7428 36.5655 65.2924 36.144 65.2924 35.3443C65.2924 34.5445 64.7235 34.1375 63.6146 34.1375H62.0669V36.5655ZM71.1553 37.3252V32.3448H70.3163V35.2708C70.3163 36.1184 69.8245 36.674 69.0097 36.674C68.2335 36.674 67.8526 36.2382 67.8526 35.4288V32.3448H67.0137V35.5773C67.0137 36.7075 67.6549 37.4114 68.7494 37.4114C69.5208 37.4114 70.0415 37.0906 70.3404 36.5159H70.3597V37.3252H71.1553ZM72.1531 33.7207C72.1531 32.8683 72.91 32.2601 73.9948 32.2601C75.0941 32.2601 75.8269 32.9018 75.8607 33.783H75.0603C74.9977 33.261 74.612 32.9401 73.9948 32.9401C73.3825 32.9401 72.9775 33.2418 72.9775 33.6776C72.9775 34.0224 73.233 34.2571 73.7923 34.3912L74.5878 34.5827C75.6003 34.827 75.9668 35.2197 75.9668 35.9332C75.9668 36.8 75.1423 37.413 74.0237 37.413C72.8473 37.413 72.1145 36.824 72.0181 35.8901H72.857C72.9582 36.46 73.3439 36.733 74.0237 36.733C74.7036 36.733 75.123 36.4456 75.123 35.9955C75.123 35.6363 74.9253 35.4304 74.3516 35.2915L73.5561 35.0999C72.6111 34.8749 72.1531 34.4391 72.1531 33.7207ZM76.878 32.3448V37.3253H77.7169V32.3448H76.878ZM77.2974 31.4588C77.0081 31.4588 76.7719 31.2241 76.7719 30.9368C76.7719 30.6446 77.0081 30.4148 77.2974 30.4148C77.5915 30.4148 77.823 30.6446 77.823 30.9368C77.823 31.2241 77.5915 31.4588 77.2974 31.4588ZM78.8502 32.3463V37.3268H79.6891V34.396C79.6891 33.5531 80.205 32.9976 80.9957 32.9976C81.7671 32.9976 82.148 33.4382 82.148 34.2427V37.3268H82.987V34.0943C82.987 32.9641 82.3505 32.2601 81.2513 32.2601C80.475 32.2601 79.9398 32.6049 79.6602 33.1413H79.6409V32.3463H78.8502ZM86.063 32.9809C85.2771 32.9809 84.7275 33.5795 84.6744 34.408H87.3985C87.3792 33.5747 86.8537 32.9809 86.063 32.9809ZM88.2037 35.8997H87.3793C87.2395 36.369 86.7718 36.6899 86.1354 36.6899C85.2338 36.6899 84.6697 36.0625 84.6697 35.1095V35.0616H88.2664V34.7456C88.2664 33.2371 87.4323 32.2601 86.0775 32.2601C84.6938 32.2601 83.8066 33.3089 83.8066 34.8557C83.8066 36.4217 84.6793 37.413 86.1161 37.413C87.2105 37.413 88.0591 36.7713 88.2037 35.8997ZM89.0232 33.7207C89.0232 32.8683 89.7802 32.2601 90.865 32.2601C91.9643 32.2601 92.6971 32.9018 92.7309 33.783H91.9305C91.8678 33.261 91.4821 32.9401 90.865 32.9401C90.2527 32.9401 89.8477 33.2418 89.8477 33.6776C89.8477 34.0224 90.1032 34.2571 90.6625 34.3912L91.458 34.5827C92.4705 34.827 92.8369 35.2197 92.8369 35.9332C92.8369 36.8 92.0125 37.413 90.8939 37.413C89.7175 37.413 88.9846 36.824 88.8882 35.8901H89.7271C89.8284 36.46 90.2141 36.733 90.8939 36.733C91.5737 36.733 91.9932 36.4456 91.9932 35.9955C91.9932 35.6363 91.7955 35.4304 91.2218 35.2915L90.4262 35.0999C89.4812 34.8749 89.0232 34.4391 89.0232 33.7207ZM95.4602 32.2601C94.3754 32.2601 93.6184 32.8683 93.6184 33.7207C93.6184 34.4391 94.0764 34.8749 95.0214 35.0999L95.817 35.2915C96.3907 35.4304 96.5884 35.6363 96.5884 35.9955C96.5884 36.4456 96.1689 36.733 95.4891 36.733C94.8093 36.733 94.4236 36.46 94.3223 35.8901H93.4834C93.5798 36.824 94.3127 37.413 95.4891 37.413C96.6077 37.413 97.4321 36.8 97.4321 35.9332C97.4321 35.2197 97.0657 34.827 96.0532 34.5827L95.2577 34.3912C94.6984 34.2571 94.4429 34.0224 94.4429 33.6776C94.4429 33.2418 94.8479 32.9401 95.4602 32.9401C96.0773 32.9401 96.463 33.261 96.5257 33.783H97.326C97.2923 32.9018 96.5595 32.2601 95.4602 32.2601ZM110.15 35.4327C110.15 36.1511 109.543 36.7018 108.752 36.7018C108.15 36.7018 107.749 36.3905 107.749 35.9164C107.749 35.4471 108.135 35.1502 108.81 35.1071L110.15 35.0257V35.4327ZM108.564 37.413C107.566 37.413 106.896 36.8144 106.896 35.9189C106.896 35.0664 107.557 34.5301 108.714 34.463L110.151 34.3816V33.965C110.151 33.3568 109.746 32.9928 109.051 32.9928C108.405 32.9928 108 33.2945 107.894 33.783H107.084C107.142 32.921 107.885 32.2601 109.071 32.2601C110.247 32.2601 110.99 32.8923 110.99 33.8836V37.3268H110.194V36.4696H110.175C109.876 37.0395 109.239 37.413 108.564 37.413ZM112.055 32.3463V37.3268H112.894V34.2236C112.894 33.5196 113.318 33.0551 113.969 33.0551C114.172 33.0551 114.35 33.079 114.418 33.103V32.2936C114.406 32.292 114.393 32.2901 114.379 32.2878C114.308 32.2768 114.201 32.2601 114.08 32.2601C113.492 32.2601 113.029 32.6097 112.865 33.1604H112.846V32.3463H112.055ZM116.997 37.4112C115.72 37.4112 114.852 36.3959 114.852 34.8347C114.852 33.2736 115.715 32.2583 116.978 32.2583C117.696 32.2583 118.275 32.6079 118.574 33.1538H118.593V30.4146H119.432V37.325H118.632V36.4821H118.617C118.294 37.0568 117.72 37.4112 116.997 37.4112ZM115.71 34.8363C115.71 33.7109 116.269 32.9925 117.156 32.9925C118.019 32.9925 118.598 33.7253 118.598 34.8363C118.598 35.9521 118.019 36.68 117.156 36.68C116.269 36.68 115.71 35.9665 115.71 34.8363ZM120.478 33.7207C120.478 32.8683 121.235 32.2601 122.32 32.2601C123.419 32.2601 124.152 32.9018 124.186 33.783H123.385C123.323 33.261 122.937 32.9401 122.32 32.9401C121.708 32.9401 121.303 33.2418 121.303 33.6776C121.303 34.0224 121.558 34.2571 122.117 34.3912L122.913 34.5827C123.925 34.827 124.292 35.2197 124.292 35.9332C124.292 36.8 123.467 37.413 122.349 37.413C121.172 37.413 120.44 36.824 120.343 35.8901H121.182C121.283 36.46 121.669 36.733 122.349 36.733C123.029 36.733 123.448 36.4456 123.448 35.9955C123.448 35.6363 123.25 35.4304 122.677 35.2915L121.881 35.0999C120.936 34.8749 120.478 34.4391 120.478 33.7207Z" fill="black"/>
</svg>
