<svg width="297" height="302" viewBox="0 0 297 302" fill="none" xmlns="http://www.w3.org/2000/svg">
<g filter="url(#filter0_d)">
<rect x="24" y="20" width="248.356" height="254" rx="16" fill="white"/>
</g>
<mask id="mask0" mask-type="alpha" maskUnits="userSpaceOnUse" x="24" y="20" width="249" height="254">
<rect x="24" y="20" width="248.356" height="254" rx="16" fill="white"/>
</mask>
<g mask="url(#mask0)">
<rect width="249" height="254" transform="translate(24 20)" fill="white"/>
<path d="M24 36C24 27.1634 31.1634 20 40 20H257C265.837 20 273 27.1634 273 36V207H24V36Z" fill="#6369FF" fill-opacity="0.03"/>
<rect opacity="0.2" x="44" y="247" width="208" height="4" rx="2" fill="#6369FF"/>
<rect opacity="0.2" x="44" y="230" width="144" height="8" rx="4" fill="#6369FF"/>
<path d="M185.376 139.844C191.903 126.552 193.616 102.903 185.7 89.933C177.785 76.9627 162 67.7965 147.234 63.7633C144.814 62.8908 142.184 62.7631 139.689 63.3967C138.466 63.7697 137.43 64.5852 136.786 65.6808C136.143 66.7765 135.94 68.0717 136.218 69.3089C133.453 67.0948 130.32 65.3735 126.96 64.2216C125.278 63.6397 123.478 63.4775 121.717 63.7493C119.957 64.0211 118.292 64.7185 116.869 65.7799C115.552 66.8995 114.728 68.4837 114.573 70.1955C114.417 71.9073 114.942 73.6117 116.036 74.9462C113.983 74.0671 111.715 73.8011 109.511 74.1808C107.308 74.5605 105.264 75.5695 103.632 77.0836C101.999 78.5977 100.849 80.5509 100.322 82.7035C99.796 84.856 99.9161 87.114 100.668 89.1998C102.449 93.5066 105.059 97.4292 108.352 100.749C109.665 102.05 110.596 103.68 111.044 105.464C111.493 107.248 111.442 109.12 110.898 110.878" fill="#263238"/>
<path d="M109.886 111.472C110.235 101.603 114.316 92.2246 121.321 85.1956C128.326 78.1665 137.743 74.0005 147.704 73.5237H149.741C171.959 73.7528 184.18 92.5896 183.3 114.543L182.236 206.618H132.012C132.012 206.618 132.012 185.903 132.012 185.261C132.012 184.619 110.535 182.969 109.285 161.887C108.776 151.621 109.238 130.676 109.886 111.472Z" fill="#DCDDFF"/>
<path d="M132.102 184.85C141.942 184.565 151.47 181.372 159.462 175.684C159.462 175.684 153.722 191.221 132.287 190.258L132.102 184.85Z" fill="#A1A5FF"/>
<path d="M116.688 125.316C116.712 126.098 117.046 126.839 117.618 127.379C118.189 127.92 118.953 128.215 119.743 128.203C120.132 128.222 120.52 128.162 120.884 128.027C121.249 127.893 121.582 127.687 121.863 127.421C122.144 127.155 122.368 126.836 122.521 126.482C122.674 126.128 122.753 125.746 122.752 125.361C122.728 124.579 122.394 123.838 121.822 123.298C121.25 122.757 120.487 122.462 119.697 122.474C119.307 122.449 118.916 122.504 118.548 122.635C118.181 122.767 117.845 122.974 117.562 123.241C117.279 123.508 117.055 123.83 116.905 124.187C116.754 124.544 116.68 124.929 116.688 125.316Z" fill="#263238"/>
<path d="M114.975 121.51C115.346 121.923 117.568 120.089 120.855 119.951C124.141 119.814 126.595 121.327 126.919 120.914C127.243 120.501 126.688 120.043 125.577 119.355C124.135 118.427 122.432 117.978 120.716 118.072C119.031 118.18 117.418 118.787 116.086 119.814C115.068 120.731 114.744 121.51 114.975 121.51Z" fill="#263238"/>
<path d="M149.09 124.901C149.126 125.688 149.47 126.429 150.049 126.968C150.629 127.507 151.397 127.801 152.192 127.789C152.58 127.807 152.969 127.748 153.333 127.613C153.697 127.479 154.03 127.273 154.312 127.007C154.593 126.741 154.817 126.421 154.97 126.067C155.123 125.713 155.201 125.332 155.201 124.947C155.165 124.161 154.821 123.42 154.242 122.881C153.663 122.342 152.894 122.047 152.099 122.06C151.711 122.041 151.323 122.101 150.958 122.235C150.594 122.37 150.261 122.576 149.979 122.842C149.698 123.108 149.474 123.427 149.321 123.781C149.168 124.135 149.09 124.516 149.09 124.901Z" fill="#263238"/>
<path d="M147.144 120.733C147.561 121.1 149.783 119.312 153.023 119.129C156.264 118.946 158.81 120.504 159.134 120.092C159.458 119.679 158.857 119.221 157.792 118.533C156.333 117.604 154.616 117.155 152.885 117.249C151.202 117.366 149.591 117.972 148.255 118.991C147.283 119.817 146.959 120.55 147.144 120.733Z" fill="#263238"/>
<path d="M136.407 145.299C134.672 144.831 132.881 144.6 131.083 144.612C130.249 144.612 129.416 144.612 129.277 143.878C129.144 143.031 129.29 142.163 129.694 141.404C130.388 139.341 131.129 137.233 131.87 134.987C133.86 129.542 135.408 123.948 136.499 118.259C134.08 123.529 132.098 128.986 130.574 134.575L128.49 140.991C128.021 142.028 127.923 143.192 128.213 144.291C128.355 144.572 128.557 144.82 128.804 145.018C129.052 145.216 129.34 145.359 129.648 145.437C130.124 145.501 130.607 145.501 131.083 145.437C132.856 145.623 134.646 145.577 136.407 145.299Z" fill="#263238"/>
<path d="M146.181 147.085C145.626 147.085 145.811 150.615 142.894 153.227C139.978 155.839 136.181 155.656 136.135 156.16C136.089 156.664 137.015 156.802 138.635 156.756C140.718 156.715 142.712 155.915 144.237 154.51C144.983 153.864 145.592 153.077 146.029 152.196C146.466 151.315 146.722 150.357 146.783 149.377C146.829 147.91 146.413 147.04 146.181 147.085Z" fill="#263238"/>
<path d="M145.711 108.037C146.081 108.908 149.322 108.358 153.164 108.633C157.006 108.908 160.201 109.779 160.664 109C161.127 108.221 160.293 107.808 158.997 106.983C157.287 106.004 155.368 105.438 153.395 105.332C151.416 105.181 149.429 105.512 147.609 106.295C146.22 106.937 145.525 107.762 145.711 108.037Z" fill="#263238"/>
<path d="M115.719 112.345C116.321 113.033 118.543 112.345 121.228 112.024C123.913 111.703 126.274 112.253 126.784 111.474C127.293 110.694 126.784 110.373 125.534 109.732C124.152 108.955 122.567 108.606 120.983 108.728C119.399 108.851 117.888 109.44 116.645 110.419C115.719 111.061 115.442 111.841 115.719 112.345Z" fill="#263238"/>
<path d="M182.322 130.171C182.692 130.171 196.766 125.176 196.997 139.612C197.229 154.049 182.507 151.299 182.507 150.887C182.507 150.474 182.322 130.171 182.322 130.171Z" fill="#DCDDFF"/>
<path d="M186.864 145.342C186.864 145.342 187.096 145.342 187.559 145.708C187.858 145.836 188.181 145.901 188.508 145.901C188.834 145.901 189.157 145.836 189.457 145.708C190.386 145.108 191.138 144.274 191.634 143.292C192.131 142.309 192.354 141.213 192.281 140.117C192.294 138.867 192.025 137.63 191.494 136.496C191.348 136.05 191.095 135.646 190.756 135.319C190.417 134.991 190.003 134.75 189.549 134.617C189.26 134.545 188.955 134.575 188.685 134.7C188.415 134.825 188.197 135.039 188.068 135.305C188.068 135.717 188.068 136.038 188.068 136.038C188.068 136.038 187.79 135.809 188.068 135.213C188.145 134.855 188.341 134.532 188.623 134.296C189.021 133.999 189.514 133.852 190.012 133.884C190.611 133.996 191.171 134.257 191.641 134.642C192.11 135.026 192.474 135.522 192.697 136.084C193.338 137.333 193.671 138.715 193.669 140.117C193.755 141.399 193.459 142.677 192.817 143.793C192.175 144.91 191.216 145.815 190.058 146.396C189.673 146.515 189.265 146.548 188.865 146.493C188.464 146.437 188.082 146.295 187.744 146.075C186.91 145.708 186.818 145.387 186.864 145.342Z" fill="#A1A5FF"/>
<path d="M100.12 84.3859C98.7314 103.131 122.153 110.556 132.198 99.9686C136.827 95.0188 140.854 88.9233 147.242 86.6318C149.43 85.9424 151.735 85.6888 154.023 85.8854C156.311 86.0821 158.537 86.7252 160.573 87.7776C163.527 89.5096 166.035 91.8972 167.899 94.7524C169.762 97.6077 170.931 100.853 171.312 104.231C172.747 113.397 171.312 121.647 173.95 130.08C174.196 131.334 174.846 132.476 175.802 133.334C176.791 133.784 177.909 133.874 178.958 133.589C180.008 133.304 180.923 132.662 181.542 131.776C183.648 128.999 184.872 125.665 185.06 122.197C186.2 114.4 185.775 106.457 183.81 98.8228C181.774 91.1819 177.546 84.2889 171.636 78.9778C163.901 72.5503 153.932 69.3754 143.863 70.1324C133.898 70.8887 124.433 74.7561 116.83 81.1778C113.162 83.9547 110.25 87.5935 108.359 91.7649" fill="#263238"/>
<path d="M115.391 73.8485C114.735 73.7056 114.056 73.7056 113.4 73.8485C111.634 74.3081 110.031 75.2442 108.771 76.5526C106.792 78.5315 105.552 81.1171 105.253 83.8856C105.012 87.303 106.068 90.6861 108.215 93.3726C110.269 96.0427 113.023 98.1037 116.178 99.3308C118.736 100.313 121.445 100.855 124.187 100.935C125.996 101.022 127.809 100.945 129.603 100.706C130.29 100.68 130.966 100.525 131.594 100.247C131.594 100.247 128.724 100.522 124.233 100.247C121.607 100.061 119.027 99.4577 116.595 98.46C113.621 97.2737 111.028 95.3094 109.095 92.7769C107.128 90.3041 106.126 87.213 106.271 84.0688C106.504 81.5086 107.577 79.0942 109.326 77.1941C110.495 75.9005 111.976 74.9226 113.632 74.3526C114.697 73.9859 115.391 73.986 115.391 73.8485Z" fill="#455A64"/>
<path d="M125.067 67.1089C125.067 67.1089 124.511 67.1088 123.678 67.338C123.103 67.669 122.607 68.1187 122.224 68.6565C121.841 69.1943 121.579 69.8075 121.456 70.4545C121.198 72.3852 121.624 74.3447 122.66 76.0002C123.765 77.9907 125.135 79.8251 126.734 81.4541C129.671 84.3801 133.275 86.5648 137.242 87.8246C138.862 88.4473 140.603 88.6981 142.335 88.5579C142.335 88.5579 140.39 88.1455 137.705 87.0455C133.942 85.6708 130.529 83.4962 127.706 80.6749C126.167 79.1184 124.83 77.3788 123.724 75.496C122.764 74.0431 122.294 72.3262 122.382 70.5921C122.565 69.4502 123.176 68.4188 124.095 67.7047C124.558 67.2464 125.067 67.2005 125.067 67.1089Z" fill="#455A64"/>
</g>
<defs>
<filter id="filter0_d" x="0" y="0" width="296.356" height="302" filterUnits="userSpaceOnUse" color-interpolation-filters="sRGB">
<feFlood flood-opacity="0" result="BackgroundImageFix"/>
<feColorMatrix in="SourceAlpha" type="matrix" values="0 0 0 0 0 0 0 0 0 0 0 0 0 0 0 0 0 0 127 0"/>
<feOffset dy="4"/>
<feGaussianBlur stdDeviation="12"/>
<feColorMatrix type="matrix" values="0 0 0 0 0 0 0 0 0 0 0 0 0 0 0 0 0 0 0.13 0"/>
<feBlend mode="normal" in2="BackgroundImageFix" result="effect1_dropShadow"/>
<feBlend mode="normal" in="SourceGraphic" in2="effect1_dropShadow" result="shape"/>
</filter>
</defs>
</svg>
